HIERARCHY
ROOT root
{
	OFFSET	0	13.1	24.9
	CHANNELS 6  Xposition Yposition Zposition Xrotation Yrotation Zrotation
	JOINT spine_1
	{
		OFFSET	0	9.99999	0
		CHANNELS 3  Xrotation Yrotation Zrotation
		JOINT spine_2
		{
			OFFSET	0	112	-10
			CHANNELS 3  Xrotation Yrotation Zrotation
			JOINT spine_3
			{
				OFFSET	0	206.5	19.3
				CHANNELS 3  Xrotation Yrotation Zrotation
				JOINT spine_4
				{
					OFFSET	0	110.4	14.6
					CHANNELS 3  Xrotation Yrotation Zrotation
					JOINT neck_1
					{
						OFFSET	0	71.8	-50.3
						CHANNELS 3  Xrotation Yrotation Zrotation
						JOINT neck_2
						{
							OFFSET	0	86.2	-25.8
							CHANNELS 3  Xrotation Yrotation Zrotation
							JOINT head_ee
							{
								OFFSET	0	179.8	-8.7
								CHANNELS 3  Xrotation Yrotation Zrotation
								End Site
								{
									OFFSET	1	0	0
								}
							}
						}
					}
					JOINT left_clavicle
					{
						OFFSET	-43.2	22.4	-70.8
						CHANNELS 3  Xrotation Yrotation Zrotation
						JOINT left_shoulder
						{
							OFFSET	-93.9	-5.79999	48.7
							CHANNELS 3  Xrotation Yrotation Zrotation
							JOINT left_elbow
							{
								OFFSET	-291.4	-30.8	15.2
								CHANNELS 3  Xrotation Yrotation Zrotation
								JOINT left_lowarm_twist
								{
									OFFSET	-110.7	-3.89999	13.6
									CHANNELS 3  Xrotation Yrotation Zrotation
									JOINT left_hand
									{
										OFFSET	-110.7	-3.89999	13.6
										CHANNELS 3  Xrotation Yrotation Zrotation
										JOINT left_ee
										{
											OFFSET	-80.8	-5.10001	12.1
											CHANNELS 3  Xrotation Yrotation Zrotation
											End Site
											{
												OFFSET	1	0	0
											}
										}
									}
								}
							}
						}
					}
					JOINT right_clavicle
					{
						OFFSET	43.2	22.4	-70.8
						CHANNELS 3  Xrotation Yrotation Zrotation
						JOINT right_shoulder
						{
							OFFSET	93.9	-5.79999	48.7
							CHANNELS 3  Xrotation Yrotation Zrotation
							JOINT right_elbow
							{
								OFFSET	291.4	-30.8	15.2
								CHANNELS 3  Xrotation Yrotation Zrotation
								JOINT right_lowarm_twist
								{
									OFFSET	110.7	-3.89999	13.6
									CHANNELS 3  Xrotation Yrotation Zrotation
									JOINT right_hand
									{
										OFFSET	110.7	-3.89999	13.6
										CHANNELS 3  Xrotation Yrotation Zrotation
										JOINT right_ee
										{
											OFFSET	80.8	-5.10001	12.1
											CHANNELS 3  Xrotation Yrotation Zrotation
											End Site
											{
												OFFSET	1	0	0
											}
										}
									}
								}
							}
						}
					}
				}
			}
		}
	}
	JOINT left_hip
	{
		OFFSET	-82.8	-127.5	0.300001
		CHANNELS 3  Xrotation Yrotation Zrotation
		JOINT left_knee
		{
			OFFSET	-28.2	-396.7	2.2
			CHANNELS 3  Xrotation Yrotation Zrotation
			JOINT left_ankle
			{
				OFFSET	-11.7	-411.3	35.4
				CHANNELS 3  Xrotation Yrotation Zrotation
				JOINT left_toes
				{
					OFFSET	0	-60	-88.6
					CHANNELS 3  Xrotation Yrotation Zrotation
					JOINT left_foot_ee
					{
						OFFSET	-22.5	-16.5	-42.2
						CHANNELS 3  Xrotation Yrotation Zrotation
						End Site
						{
							OFFSET	1	0	0
						}
					}
				}
			}
		}
	}
	JOINT right_hip
	{
		OFFSET	82.8	-127.5	0.300001
		CHANNELS 3  Xrotation Yrotation Zrotation
		JOINT right_knee
		{
			OFFSET	28.2	-396.7	2.2
			CHANNELS 3  Xrotation Yrotation Zrotation
			JOINT right_ankle
			{
				OFFSET	11.7	-411.3	35.4
				CHANNELS 3  Xrotation Yrotation Zrotation
				JOINT right_toes
				{
					OFFSET	0	-60	-88.6
					CHANNELS 3  Xrotation Yrotation Zrotation
					JOINT right_foot_ee
					{
						OFFSET	22.5	-16.5	-42.2
						CHANNELS 3  Xrotation Yrotation Zrotation
						End Site
						{
							OFFSET	1	0	0
						}
					}
				}
			}
		}
	}
}
MOTION
Frames: 8
Frame Time: 0.02
666.738 602.862 -1654.3 -44.2437 66.1458 42.3637 8.81931 0.0374623 0.747558 8.81962 -0.0101813 0.748427 8.8189 -0.0534298 0.746587 8.81813 0.0651469 0.745656 -23.5303 -10.406 2.41397 -24.3909 -21.1319 -2.95579 -0.0 0.0 -0.0 -0.367934 15.7883 1.27369 -20.874 -26.9693 69.4992 2.36338 -49.4903 1.08941 -80.9476 -7.94193 5.26598 -2.92879 5.30761 -17.2613 -0.0 0.0 -0.0 -3.24906 -25.5344 1.31076 -19.0351 40.1074 -65.1376 1.87324 42.8554 -0.735214 19.2385 -0.272024 2.43097 -0.835701 -28.498 -6.59444 0.0 0.0 0.0 41.9285 18.0512 1.52724 -2.13269 0.0819178 0.317025 -3.34427 -23.0018 0.578496 -11.0331 0.0 0.0 -0.0 0.0 -0.0 8.84695 14.198 -8.99174 -29.433 -0.0653643 -4.46704 -23.7821 -29.1876 -3.82018 20.8906 -0.0 -0.0 0.0 0.0 0.0 
660.192 602.937 -1654.62 -47.1284 67.541 45.2091 8.46548 0.0745671 0.902799 8.46593 0.0169709 0.905714 8.46539 -0.0409984 0.904945 8.46426 0.102429 0.900064 -23.0163 -11.1671 2.68479 -23.9882 -22.7426 -3.01629 -0.0 0.0 -0.0 -0.0260493 14.5184 1.66751 -21.4323 -28.3544 69.4383 2.15842 -46.9099 0.936581 -80.8975 -7.93559 5.26676 -3.33247 4.64642 -20.4225 -0.0 0.0 -0.0 -4.48322 -23.7755 3.36729 -18.7473 47.2993 -66.9293 1.41185 34.9665 -0.444721 27.8936 -0.12664 3.52595 0.429821 -29.5174 -13.8827 0.0 0.0 0.0 41.3264 17.8635 2.51106 -2.05408 0.0791087 0.305288 -2.40374 -27.0945 0.434992 -11.0172 0.0 0.0 -0.0 0.0 -0.0 14.5494 9.59321 -8.4027 -43.9379 0.736109 -6.54055 -24.8023 -29.1413 -3.98303 24.4424 -0.0 -0.0 0.0 0.0 0.0 
650.956 613.819 -1655.67 -51.6211 68.3887 50.3508 8.16978 0.046826 0.710375 8.17006 0.00152924 0.711915 8.1696 -0.0476799 0.710318 8.16891 0.0650971 0.708934 -21.9739 -12.2748 3.2556 -23.097 -25.1904 -2.85861 -0.0 0.0 -0.0 0.0544298 12.8677 1.60881 -21.074 -30.1626 69.5446 2.12922 -46.5206 0.915327 -80.5945 -7.89721 5.27134 -3.7708 4.52142 -23.6175 -0.0 0.0 -0.0 -4.99733 -22.8183 4.32509 -19.1727 51.5652 -69.6802 1.06304 27.7705 -0.262792 33.1461 0.0415543 4.17552 1.40256 -27.2959 -18.7715 0.0 0.0 0.0 40.4524 17.7912 3.08997 -1.96272 0.0758232 0.291652 0.582981 -29.0085 -0.10724 -10.3929 0.0 0.0 -0.0 0.0 -0.0 22.562 3.17042 -6.66694 -57.6752 1.95425 -8.26436 -25.8566 -28.5958 -4.13758 28.7755 -0.0 -0.0 0.0 0.0 0.0 
630.942 602.966 -1653.57 -54.1022 67.7142 52.6976 8.25721 0.0260236 0.567146 8.25739 -0.0101175 0.567653 8.25698 -0.0484651 0.565671 8.25654 0.0414788 0.566226 -18.7313 -12.977 3.15471 -19.709 -26.6255 -2.50496 -0.0 0.0 -0.0 0.40126 12.1487 2.10617 -18.3395 -30.6379 69.975 2.16165 -46.9526 0.938939 -80.635 -7.90234 5.27074 -4.0434 3.81385 -26.0099 -0.0 0.0 -0.0 -5.82734 -22.7357 5.5252 -22.2826 52.2485 -68.2475 1.04699 27.4128 -0.25536 33.9601 0.072927 4.27472 1.68247 -28.1652 -20.6431 0.0 0.0 0.0 40.3118 17.5759 3.65341 -1.64398 0.0641914 0.244119 3.70956 -28.6487 -0.672286 -9.6497 0.0 0.0 -0.0 0.0 -0.0 25.2402 -0.973917 -3.31384 -64.9178 2.75376 -9.04406 -23.6308 -25.7326 -3.7186 32.0552 -0.0 -0.0 0.0 0.0 0.0 
611.624 602.5 -1656.31 -56.7309 67.7978 55.8578 8.3257 -0.024854 0.35031 8.32577 -0.0470946 0.348018 8.32537 -0.0701007 0.344123 8.3252 -0.0148734 0.350875 -15.3009 -14.3114 1.9643 -16.1053 -28.5318 -3.25766 -0.0 0.0 -0.0 0.998133 11.3786 3.03292 -15.2823 -31.1729 70.7907 2.20883 -47.569 0.973594 -81.1635 -7.96925 5.26256 -4.18806 2.70541 -27.7262 -0.0 0.0 -0.0 -6.03836 -22.8568 5.79103 -23.7061 52.2998 -68.2357 1.03835 27.2193 -0.251395 33.6235 0.059781 4.23375 1.5866 -29.2067 -20.3379 0.0 0.0 0.0 39.7169 16.9517 3.80016 -1.56481 0.0612609 0.232322 5.99317 -29.1189 -1.08388 -8.60204 0.0 0.0 -0.0 0.0 -0.0 28.2162 -2.47065 -0.718027 -65.6916 2.84489 -9.1213 -23.1836 -23.264 -3.60373 32.5686 -0.0 -0.0 0.0 0.0 0.0 
600.006 609.191 -1658.7 -58.9228 67.6219 57.9783 8.28648 -0.0408603 0.270157 8.28652 -0.0579683 0.26701 8.28619 -0.0757504 0.262519 8.28609 -0.0333399 0.271188 -14.5858 -14.5409 2.59333 -15.3558 -29.3221 -2.55704 -0.0 0.0 -0.0 1.28443 11.5212 3.52933 -15.3315 -31.1867 70.1241 2.26564 -48.2922 1.01576 -82.0083 -8.07603 5.2482 -4.43835 1.83967 -30.1397 -0.0 0.0 -0.0 -6.17758 -22.9989 5.94748 -24.2293 52.3018 -68.5781 1.02813 26.9893 -0.246737 33.1421 0.0414023 4.17503 1.50112 -29.4965 -19.9147 0.0 0.0 0.0 39.2404 16.0523 3.89106 -1.44852 0.056927 0.215002 8.04892 -29.3732 -1.44881 -7.53904 0.0 0.0 -0.0 0.0 -0.0 29.7449 -2.75369 -1.08206 -66.6665 2.96118 -9.21686 -21.2806 -23.102 -3.30435 33.3193 -0.0 -0.0 0.0 0.0 0.0 
589.059 606.552 -1662.48 -60.1551 67.9007 59.2475 8.23211 -0.0606111 0.197514 8.23213 -0.0730565 0.193257 8.23185 -0.0860349 0.187839 8.23181 -0.0552896 0.199069 -13.5583 -14.8374 3.53619 -14.2583 -30.433 -1.47804 -0.0 0.0 -0.0 1.68923 11.7877 4.23314 -15.3212 -30.8783 69.1731 2.33559 -49.1555 1.06834 -83.1977 -8.22591 5.22528 -4.78329 0.667646 -33.558 -0.0 0.0 -0.0 -6.37546 -23.3114 6.13461 -24.9058 52.3231 -69.2053 1.02968 27.0242 -0.24744 32.4559 0.0160582 4.09106 1.37677 -29.8506 -19.2903 0.0 0.0 0.0 38.577 14.7615 4.0267 -1.39652 0.0549777 0.207259 10.9762 -29.8439 -1.96328 -6.02127 0.0 0.0 -0.0 0.0 -0.0 31.9792 -3.10189 -1.57304 -68.016 3.12483 -9.34588 -18.5653 -22.9015 -2.87712 34.377 -0.0 -0.0 0.0 0.0 0.0 
581.762 606.421 -1669.42 -60.3383 67.8609 59.7263 8.21021 -0.0798098 0.1557 8.21021 -0.0895557 0.150306 8.20997 -0.0996287 0.143827 8.20995 -0.0756636 0.157756 -13.4482 -14.6858 4.92689 -14.1279 -30.991 -0.0730497 -0.0 0.0 -0.0 2.20413 11.0125 5.05023 -15.3523 -30.3738 67.6904 2.33571 -49.157 1.06843 -83.9001 -8.31416 5.21028 -5.026 0.436074 -35.6806 -0.0 0.0 -0.0 -6.40814 -23.5827 6.09838 -25.2628 52.2123 -69.5906 1.03782 27.2074 -0.251153 31.7741 -0.00812248 4.00735 1.21076 -29.7069 -18.308 0.0 0.0 0.0 38.215 14.8124 3.36626 -1.35884 0.0535605 0.20165 12.1012 -30.0646 -2.15972 -5.05973 0.0 0.0 -0.0 0.0 -0.0 32.9993 -3.29652 -1.75057 -67.7692 3.09467 -9.32257 -15.7772 -22.784 -2.43946 34.8049 -0.0 -0.0 0.0 0.0 0.0 
